control3min_grf.mot
version=1
nRows=27
nColumns 19
inDegrees=yes
endheader
time	1_ground_force_vx	1_ground_force_vy	1_ground_force_vz	1_ground_force_px	1_ground_force_py	1_ground_force_pz	1_ground_torque_x	1_ground_torque_y	1_ground_torque_z	2_ground_force_vx	2_ground_force_vy	2_ground_force_vz	2_ground_force_px	2_ground_force_py	2_ground_force_pz	2_ground_torque_x	2_ground_torque_y	2_ground_torque_z
            0.005000	            0.595030	            0.722554	           -0.319379	           -0.146260	            0.006096	           -0.371920	            0.126164	           -0.064820	            0.118785	           -0.234249	           -0.000846	            0.000100	           -0.140405	            0.005930	           -0.684716	           -0.150164	           -0.029035	            0.037663
            0.005500	            0.045646	            1.081603	            0.004524	           -0.146260	            0.006096	           -0.371920	            0.149818	           -0.028244	            0.133010	            0.050899	           -1.105223	            0.136822	           -0.140405	            0.005930	           -0.684716	            0.018997	           -0.047532	            0.094074
            0.006000	            0.137268	            0.180685	           -0.091280	           -0.146260	            0.006096	           -0.371920	            0.154184	           -0.064936	            0.080389	            0.188167	           -0.184309	            0.233904	           -0.140405	            0.005930	           -0.684716	           -0.018623	           -0.047264	           -0.019011
            0.006500	            0.366468	           -0.359871	           -0.140024	           -0.146260	            0.006096	           -0.371920	            0.212636	           -0.036769	            0.014965	           -0.093659	           -0.000673	            0.093896	           -0.140405	            0.005930	           -0.684716	           -0.169206	            0.046384	            0.075641
            0.007000	            0.412374	            0.541073	           -0.044561	           -0.146260	            0.006096	           -0.371920	            0.189574	           -0.083288	            0.091938	            0.280997	            0.001852	           -0.234760	           -0.140405	            0.005930	           -0.684716	           -0.037564	            0.008981	            0.094301
            0.007500	            0.595207	            1.623293	           -0.177946	           -0.146260	            0.006096	           -0.371920	            0.119537	           -0.092224	            0.043460	            0.096961	           -0.919901	           -0.144109	           -0.140405	            0.005930	           -0.684716	           -0.131549	            0.018296	            0.037824
            0.008000	            0.503149	            0.542664	           -0.411636	           -0.146260	            0.006096	           -0.371920	            0.148766	           -0.064538	            0.039635	            0.003303	           -0.920574	           -0.050213	           -0.140405	            0.005930	           -0.684716	            0.018835	           -0.000336	            0.113093
            0.008500	            0.457486	            0.181927	           -0.367212	           -0.146260	            0.006096	           -0.371920	            0.072136	           -0.064895	            0.113074	            0.095070	           -0.368293	            0.092502	           -0.140405	            0.005930	           -0.684716	           -0.018649	           -0.037879	           -0.000127
            0.009000	            0.549139	            0.362210	           -0.366667	           -0.146260	            0.006096	           -0.371920	            0.146875	           -0.008975	            0.023041	            0.187461	            0.000175	            0.140705	           -0.140405	            0.005930	           -0.684716	           -0.074920	           -0.057122	            0.037530
            0.009500	            0.182932	            0.541422	           -0.135704	           -0.146260	            0.006096	           -0.371920	            0.099408	           -0.055362	            0.007316	            0.093015	            0.184654	           -0.046311	           -0.140405	            0.005930	           -0.684716	           -0.093868	           -0.009994	            0.056557
            0.010000	            0.504351	            1.441633	            0.142500	           -0.146260	            0.006096	           -0.371920	            0.105950	           -0.055284	            0.039749	            0.283758	           -0.735578	           -0.002748	           -0.140405	            0.005930	           -0.684716	           -0.074981	           -0.029100	            0.131882
            0.010500	            0.366106	            1.623052	           -0.131521	           -0.146260	            0.006096	           -0.371920	            0.155005	           -0.073673	           -0.003919	            0.234832	           -0.182633	           -0.188469	           -0.140405	            0.005930	           -0.684716	            0.000025	           -0.000202	            0.056551
            0.011000	            0.595650	           -0.179561	           -0.139820	           -0.146260	            0.006096	           -0.371920	            0.137701	           -0.101785	            0.118630	           -0.137227	           -0.921249	           -0.003226	           -0.140405	            0.005930	           -0.684716	           -0.018938	            0.037877	           -0.037558
            0.011500	            0.503605	            0.541877	           -0.228212	           -0.146260	            0.006096	           -0.371920	            0.197271	           -0.119983	            0.039277	           -0.187379	           -0.000844	            0.047008	           -0.140405	            0.005930	           -0.684716	           -0.056338	           -0.009522	           -0.037710
            0.012000	            0.412018	            0.001063	           -0.230304	           -0.146260	            0.006096	           -0.371920	            0.141333	           -0.083143	            0.054481	           -0.142585	            0.552272	           -0.091825	           -0.140405	            0.005930	           -0.684716	           -0.056434	            0.027953	            0.056676
            0.012500	            0.596007	            0.360450	            0.045923	           -0.146260	            0.006096	           -0.371920	            0.204612	           -0.055548	            0.118643	            0.044733	            0.553618	           -0.279617	           -0.140405	            0.005930	           -0.684716	           -0.037315	           -0.066439	            0.037480
            0.013000	            0.229524	            0.179720	            0.137772	           -0.146260	            0.006096	           -0.371920	            0.088143	           -0.037249	            0.103379	            0.143167	           -0.735751	           -0.096544	           -0.140405	            0.005930	           -0.684716	           -0.056390	            0.009249	            0.000058
            0.013500	            0.274456	            0.181302	           -0.229189	           -0.146260	            0.006096	           -0.371920	            0.084835	           -0.055406	            0.030072	            0.238155	           -1.103375	           -0.191754	           -0.140405	            0.005930	           -0.684716	            0.000152	           -0.028761	            0.113000
            0.014000	            0.182656	            0.181481	           -0.274818	           -0.146260	            0.006096	           -0.371920	            0.124284	           -0.092335	            0.007108	            0.143934	           -0.920736	            0.137439	           -0.140405	            0.005930	           -0.684716	           -0.018974	            0.056514	            0.037911
            0.014500	            0.411934	            1.082460	           -0.179810	           -0.146260	            0.006096	           -0.371920	            0.063503	           -0.092238	            0.017001	           -0.043588	           -0.920409	           -0.144050	           -0.140405	            0.005930	           -0.684716	            0.056270	            0.028427	            0.037778
            0.015000	            0.595503	            0.000902	           -0.184903	           -0.146260	            0.006096	           -0.371920	            0.214439	           -0.082962	            0.043321	            0.143873	           -0.920234	           -0.003345	           -0.140405	            0.005930	           -0.684716	           -0.037351	           -0.047803	            0.112949
            0.015500	            0.457435	            1.083059	           -0.317491	           -0.146260	            0.006096	           -0.371920	            0.050634	           -0.018358	            0.038103	            0.001994	           -0.552445	           -0.001971	           -0.140405	            0.005930	           -0.684716	           -0.056154	           -0.038552	            0.150691
            0.016000	            0.412668	            0.180149	            0.045605	           -0.146260	            0.006096	           -0.371920	            0.148346	           -0.055563	            0.092172	           -0.188064	            0.183472	            0.000737	           -0.140405	            0.005930	           -0.684716	            0.000066	           -0.000538	            0.150802
            0.016500	            0.412536	            0.901211	            0.048697	           -0.146260	            0.006096	           -0.371920	            0.110333	           -0.027840	            0.092360	            0.143852	           -0.920067	           -0.050273	           -0.140405	            0.005930	           -0.684716	           -0.018582	           -0.047600	            0.075240
            0.017000	            0.320170	           -0.359093	           -0.323334	           -0.146260	            0.006096	           -0.371920	            0.126697	           -0.101678	            0.050542	            0.282429	           -0.367282	           -0.001434	           -0.140405	            0.005930	           -0.684716	           -0.037409	           -0.038148	            0.056432
            0.017500	            0.365800	            0.181909	           -0.366985	           -0.146260	            0.006096	           -0.371920	            0.034496	           -0.101757	            0.071504	            0.283758	           -0.735578	           -0.002748	           -0.140405	            0.005930	           -0.684716	           -0.075270	            0.037472	            0.019017
            0.018000	            0.596169	            0.720588	            0.139180	           -0.146260	            0.006096	           -0.371920	            0.144015	           -0.064558	            0.062348	            0.186714	            0.184992	           -0.046351	           -0.140405	            0.005930	           -0.684716	           -0.056500	            0.028491	           -0.094126
